<svg id="all-icons" xmlns="http://www.w3.org/2000/svg" viewBox="0 0 24 24"><defs><style>.cls-1{fill:#5b5d58}</style></defs><title>continuous-video-recording</title><path class="cls-1" d="M11.5 7a.5.5 0 0 0-.5.5V13h4.5a.5.5 0 0 0 0-1H12V7.5a.5.5 0 0 0-.5-.5zm11 12.5H22v-3a.49.49 0 0 0-.5-.49H21a.52.52 0 0 0-.42.23l-2 3a.57.57 0 0 0-.08.28V20a.5.5 0 0 0 .5.5h2v.5a.51.51 0 0 0 .5.49.49.49 0 0 0 .5-.49v-.5h.49a.5.5 0 0 0 0-1zm-2.89 0L21 17.4v2.1zm-2.14 1h-2.14a5.25 5.25 0 0 1 1.38-1.09 1.88 1.88 0 0 0 .95-1.62A1.79 1.79 0 0 0 15.87 16a1.86 1.86 0 0 0-1.75 1.51.5.5 0 0 0 .4.59.51.51 0 0 0 .59-.4.86.86 0 0 1 .76-.7.79.79 0 0 1 .79.78.86.86 0 0 1-.45.75C14.2 19.7 14 20.83 14 21a.52.52 0 0 0 .13.39.51.51 0 0 0 .37.16h3A.5.5 0 0 0 18 21a.5.5 0 0 0-.53-.5z"/><path class="cls-1" d="M20.5 13a.47.47 0 0 0 .35-.15l2-2a.49.49 0 1 0-.7-.7L21 11.33a9.5 9.5 0 1 0-10.52 10.12c.33 0 .67.05 1 .05a.5.5 0 0 0 0-1c-.31 0-.61 0-.92-.05A8.5 8.5 0 1 1 20 11.26l-1.11-1.11a.49.49 0 0 0-.7.7l2 2a.47.47 0 0 0 .31.15z"/></svg>